<?xml version="1.0" encoding="utf-8"?>
<svg width="124" height="24" xmlns="http://www.w3.org/2000/svg">
  <path d="M 4.267 35.312 C 6.825 35.312 8.943 34.632 10.622 33.275 C 12.299 31.913 13.139 29.935 13.139 27.34 C 13.01 23.839 10.855 21.213 6.67 19.462 L 4.422 18.337 C 3.932 18.147 3.583 17.963 3.377 17.773 C 3.183 17.615 3.067 17.351 3.067 17.07 C 3.067 16.288 3.494 15.899 4.345 15.899 C 5.404 15.899 6.191 16.554 6.708 17.868 L 12.481 15.897 C 11.086 11.707 8.401 9.613 4.422 9.613 C 2.046 9.613 0.07 10.364 -1.506 11.866 C -3.08 13.364 -3.868 15.32 -3.868 17.723 C -3.868 18.475 -3.778 19.17 -3.596 19.812 C -3.416 20.453 -3.144 21.015 -2.784 21.5 C -2.422 21.984 -2.074 22.405 -1.739 22.766 C -1.402 23.125 -0.976 23.463 -0.457 23.774 C 0.058 24.087 0.451 24.313 0.723 24.454 C 0.993 24.594 1.363 24.759 1.827 24.946 L 2.485 25.228 L 4.811 26.259 C 5.377 26.51 5.748 26.721 5.915 26.892 C 6.08 27.061 6.172 27.311 6.164 27.571 C 6.164 28.386 5.533 28.792 4.267 28.792 C 2.408 28.792 1.297 27.793 0.936 25.792 L -4.876 27.387 C -4.154 32.673 -1.105 35.314 4.267 35.314 Z M 22.433 35.312 C 24.99 35.312 26.874 34.123 28.089 31.748 L 28.089 34.797 L 36.07 34.797 L 36.07 10.129 L 28.089 10.129 L 28.089 23.636 C 28.089 26.419 27.3 27.807 25.725 27.807 C 24.124 27.807 23.323 26.419 23.323 23.636 L 23.323 10.129 L 15.342 10.129 L 15.342 24.573 C 15.342 31.733 17.706 35.314 22.433 35.314 Z M 47.571 34.797 L 47.571 21.293 C 47.571 18.507 48.358 17.116 49.933 17.116 C 51.534 17.116 52.338 18.507 52.338 21.293 L 52.338 34.797 L 60.316 34.797 L 60.316 20.353 C 60.316 13.193 57.953 9.613 53.227 9.613 C 50.669 9.613 48.784 10.803 47.571 13.176 L 47.571 10.129 L 39.588 10.129 L 39.588 34.797 L 47.571 34.797 Z M 71.586 34.797 L 71.586 21.293 C 71.586 18.507 72.373 17.116 73.948 17.116 C 75.549 17.116 76.35 18.507 76.35 21.293 L 76.35 34.797 L 84.332 34.797 L 84.332 20.353 C 84.332 13.193 81.968 9.613 77.242 9.613 C 74.684 9.613 72.798 10.803 71.586 13.176 L 71.586 10.129 L 63.603 10.129 L 63.603 34.797 L 71.586 34.797 Z M 96.53 45.302 L 109.471 10.129 L 101.138 10.129 L 97.185 22.745 L 93.66 10.129 L 84.943 10.129 L 93.429 32.405 L 88.703 45.302 L 96.53 45.302 Z M 117.87 35.312 C 120.428 35.312 122.546 34.632 124.225 33.275 C 125.904 31.913 126.744 29.935 126.744 27.34 C 126.614 23.839 124.456 21.213 120.273 19.462 L 118.025 18.337 C 117.536 18.147 117.187 17.963 116.98 17.773 C 116.786 17.615 116.67 17.351 116.67 17.07 C 116.67 16.288 117.096 15.899 117.949 15.899 C 119.007 15.899 119.796 16.554 120.313 17.868 L 126.086 15.897 C 124.689 11.707 122.004 9.613 118.027 9.613 C 115.651 9.613 113.674 10.364 112.099 11.866 C 110.522 13.366 109.736 15.32 109.736 17.725 C 109.736 18.477 109.826 19.172 110.005 19.814 C 110.187 20.455 110.459 21.017 110.821 21.502 C 111.181 21.986 111.531 22.407 111.866 22.768 C 112.202 23.127 112.629 23.465 113.146 23.776 C 113.661 24.089 114.056 24.315 114.328 24.456 C 114.596 24.596 114.967 24.761 115.43 24.947 L 116.089 25.23 L 118.414 26.261 C 118.982 26.512 119.35 26.723 119.518 26.894 C 119.683 27.062 119.776 27.313 119.769 27.573 C 119.769 28.388 119.137 28.794 117.87 28.794 C 116.013 28.794 114.901 27.795 114.539 25.794 L 108.727 27.387 C 109.451 32.673 112.498 35.314 117.87 35.314 Z M 133.17 8.627 C 134.589 8.627 135.687 8.223 136.464 7.408 C 137.236 6.598 137.625 5.565 137.625 4.314 C 137.625 3.034 137.251 1.992 136.501 1.196 C 135.752 0.397 134.642 0 133.17 0 C 131.697 0 130.585 0.399 129.836 1.196 C 129.086 1.994 128.712 3.034 128.712 4.315 C 128.712 5.565 129.101 6.598 129.875 7.41 C 130.651 8.223 131.749 8.627 133.17 8.627 Z M 137.159 34.797 L 137.159 10.129 L 129.177 10.129 L 129.177 34.797 L 137.158 34.797 Z M 149.243 35.312 C 151.954 35.312 153.89 34.123 155.052 31.748 L 155.052 34.797 L 163.033 34.797 L 163.033 0.89 L 155.052 0.89 L 155.052 13.224 C 153.89 10.818 151.954 9.613 149.242 9.613 C 146.504 9.613 144.224 10.826 142.404 13.248 C 140.583 15.671 139.672 18.741 139.672 22.464 C 139.672 26.182 140.583 29.255 142.404 31.68 C 144.224 34.101 146.504 35.312 149.242 35.312 Z M 151.412 27.951 C 150.275 27.951 149.365 27.435 148.68 26.404 C 147.995 25.371 147.653 24.057 147.653 22.464 C 147.653 20.869 147.989 19.557 148.66 18.525 C 149.357 17.492 150.275 16.977 151.41 16.977 C 152.547 16.977 153.457 17.492 154.142 18.525 C 154.827 19.555 155.168 20.869 155.168 22.464 C 155.168 24.057 154.827 25.371 154.142 26.404 C 153.457 27.435 152.547 27.951 151.41 27.951 Z M 177.48 35.312 C 181.533 35.312 184.698 33.89 186.972 31.048 L 183.676 25.699 C 182.05 27.294 180.216 28.092 178.175 28.092 C 176.627 28.092 175.368 27.668 174.398 26.827 C 173.431 25.98 172.946 25.168 172.946 24.385 L 187.939 24.385 C 188.068 23.823 188.133 23.089 188.133 22.183 C 188.133 18.306 187.08 15.242 184.976 12.99 C 182.87 10.738 180.179 9.613 176.897 9.613 C 173.384 9.613 170.609 10.881 168.569 13.414 C 166.528 15.944 165.507 18.993 165.507 22.557 C 165.507 26.214 166.585 29.255 168.742 31.68 C 170.9 34.101 173.811 35.312 177.48 35.312 Z M 180.927 19.931 L 172.946 19.931 C 172.998 18.773 173.411 17.892 174.186 17.281 C 174.96 16.672 175.877 16.368 176.936 16.368 C 177.995 16.368 178.913 16.679 179.688 17.306 C 180.462 17.93 180.876 18.806 180.927 19.931 Z" fill="#FFF" fill-rule="nonzero" style=""/>
</svg>